<svg width="161" height="30" viewBox="0 0 161 30" fill="none" xmlns="http://www.w3.org/2000/svg">
<path d="M30.0372 0H0V29.9999H30.0372V0Z" fill="#00B67A"/>
<path d="M15.0187 20.2188L19.5868 19.0626L21.4954 24.9376L15.0187 20.2188ZM25.5316 12.6251H17.4904L15.0187 5.06265L12.5468 12.6251H4.50562L11.0137 17.3126L8.54186 24.875L15.0499 20.1876L19.0548 17.3126L25.5316 12.6251Z" fill="white"/>
<path d="M62.5772 0.000152588H32.54V30H62.5772V0.000152588Z" fill="#00B67A"/>
<path d="M47.5587 20.2188L52.1267 19.0626L54.0354 24.9376L47.5587 20.2188ZM58.0716 12.6251H50.0304L47.5587 5.06265L45.0868 12.6251H37.0456L43.5536 17.3126L41.0819 24.875L47.5899 20.1876L51.5948 17.3126L58.0716 12.6251Z" fill="white"/>
<path d="M95.1172 0.000152588H65.08V30H95.1172V0.000152588Z" fill="#00B67A"/>
<path d="M80.0987 20.2188L84.6668 19.0626L86.5755 24.9376L80.0987 20.2188ZM90.6116 12.6251H82.5704L80.0987 5.06265L77.6269 12.6251H69.5856L76.0938 17.3126L73.6219 24.875L80.1299 20.1876L84.1349 17.3126L90.6116 12.6251Z" fill="white"/>
<path d="M127.659 0.000152588H97.6213V30H127.659V0.000152588Z" fill="#00B67A"/>
<path d="M112.64 20.2188L117.208 19.0626L119.117 24.9376L112.64 20.2188ZM123.153 12.6251H115.112L112.64 5.06265L110.168 12.6251H102.127L108.635 17.3126L106.163 24.875L112.671 20.1876L116.676 17.3126L123.153 12.6251Z" fill="white"/>
<path d="M160.199 0.000152588H130.161V30H160.199V0.000152588Z" fill="#00B67A"/>
<path d="M145.18 20.2188L149.748 19.0626L151.657 24.9376L145.18 20.2188ZM155.693 12.6251H147.651L145.18 5.06265L142.708 12.6251H134.667L141.175 17.3126L138.703 24.875L145.211 20.1876L149.216 17.3126L155.693 12.6251Z" fill="white"/>
</svg>
