<svg width="24" height="24" viewBox="0 0 24 24" fill="none" xmlns="http://www.w3.org/2000/svg">
<path d="M23.25 8.25C23.2491 7.45462 22.9328 6.69206 22.3704 6.12964C21.8079 5.56722 21.0454 5.25087 20.25 5.25H18V4.5C17.9994 3.90345 17.7621 3.33152 17.3403 2.9097C16.9185 2.48787 16.3465 2.25062 15.75 2.25H8.25C7.65345 2.25062 7.08152 2.48787 6.65969 2.9097C6.23787 3.33152 6.00062 3.90345 6 4.5V5.25H3.75C2.95462 5.25087 2.19206 5.56722 1.62964 6.12964C1.06722 6.69206 0.750869 7.45462 0.75 8.25V10.5H23.25V8.25ZM16.5 5.25H7.5V4.5C7.5 4.30109 7.57902 4.11032 7.71967 3.96967C7.86032 3.82902 8.05109 3.75 8.25 3.75H15.75C15.9489 3.75 16.1397 3.82902 16.2803 3.96967C16.421 4.11032 16.5 4.30109 16.5 4.5V5.25Z" fill="#FD5C63"/>
<path d="M15.75 12.375C15.75 12.6734 15.6315 12.9595 15.4205 13.1705C15.2095 13.3815 14.9234 13.5 14.625 13.5H9.375C9.07663 13.5 8.79048 13.3815 8.5795 13.1705C8.36853 12.9595 8.25 12.6734 8.25 12.375V12.1875C8.25 12.1378 8.23025 12.0901 8.19508 12.0549C8.15992 12.0198 8.11223 12 8.0625 12H0.75V18.75C0.75 19.5456 1.06607 20.3087 1.62868 20.8713C2.19129 21.4339 2.95435 21.75 3.75 21.75H20.25C21.0456 21.75 21.8087 21.4339 22.3713 20.8713C22.9339 20.3087 23.25 19.5456 23.25 18.75V12H15.9375C15.8878 12 15.8401 12.0198 15.8049 12.0549C15.7698 12.0901 15.75 12.1378 15.75 12.1875V12.375Z" fill="#FD5C63"/>
</svg>
