<svg width="40" height="40" viewBox="0 0 40 40" fill="none" xmlns="http://www.w3.org/2000/svg">
<path fill-rule="evenodd" clip-rule="evenodd" d="M21.3653 40H2.20769C0.98806 40 0 39.0113 0 37.7922V2.20768C0 0.988212 0.988215 0 2.20769 0H37.7925C39.0116 0 40 0.988212 40 2.20768V37.7922C40 39.0115 39.0115 40 37.7925 40H27.5994V24.5098H32.7988L33.5773 18.473H27.5994V14.6189C27.5994 12.8711 28.0848 11.68 30.5911 11.68L33.7878 11.6786V6.27925C33.2349 6.20568 31.3373 6.04131 29.1296 6.04131C24.5207 6.04131 21.3653 8.85461 21.3653 14.021V18.473H16.1526V24.5098H21.3653V40Z" fill="#1E3665"/>
</svg>
