<svg width="25" height="26" viewBox="0 0 25 26" fill="none" xmlns="http://www.w3.org/2000/svg">
<path fill-rule="evenodd" clip-rule="evenodd" d="M13.3533 25.8953H1.37981C0.617537 25.8953 0 25.2552 0 24.466V1.42921C0 0.63975 0.617634 0 1.37981 0H23.6203C24.3823 0 25 0.63975 25 1.42921V24.466C25 25.2553 24.3822 25.8953 23.6203 25.8953H17.2496V15.8672H20.4992L20.9858 11.9591H17.2496V9.46399C17.2496 8.3325 17.553 7.56142 19.1194 7.56142L21.1174 7.56052V4.06507C20.7718 4.01744 19.5858 3.91103 18.206 3.91103C15.3254 3.91103 13.3533 5.73231 13.3533 9.07694V11.9591H10.0954V15.8672H13.3533V25.8953Z" fill="#A6A6A6"/>
</svg>
