<svg width="24" height="24" viewBox="0 0 24 24" fill="none" xmlns="http://www.w3.org/2000/svg">
<path d="M18.3281 22.5001C17.4131 22.5001 16.1278 22.1691 14.2031 21.0938C11.8626 19.7813 10.0523 18.5696 7.72451 16.2479C5.48013 14.0049 4.38794 12.5527 2.85935 9.77115C1.13247 6.63052 1.42685 4.98427 1.75591 4.28068C2.14779 3.43974 2.72622 2.93677 3.47388 2.43755C3.89855 2.15932 4.34795 1.92081 4.81638 1.72505C4.86326 1.7049 4.90685 1.68568 4.94576 1.66833C5.17779 1.5638 5.52935 1.40583 5.97466 1.57458C6.27185 1.68615 6.53716 1.91443 6.95248 2.32458C7.80419 3.16458 8.9681 5.03537 9.39747 5.95412C9.68576 6.57333 9.87654 6.98208 9.87701 7.44052C9.87701 7.97724 9.60701 8.39115 9.27935 8.83787C9.21794 8.92177 9.15701 9.00193 9.09794 9.07974C8.74122 9.54849 8.66294 9.68396 8.71451 9.92583C8.81904 10.4119 9.59857 11.859 10.8797 13.1372C12.1608 14.4155 13.5661 15.1458 14.054 15.2499C14.3062 15.3038 14.4445 15.2222 14.9283 14.8529C14.9976 14.7999 15.0689 14.7451 15.1434 14.6902C15.6431 14.3185 16.0378 14.0555 16.5619 14.0555H16.5647C17.0208 14.0555 17.4112 14.2533 18.0581 14.5796C18.9018 15.0052 20.8289 16.1541 21.674 17.0068C22.0851 17.4211 22.3144 17.6855 22.4264 17.9822C22.5951 18.429 22.4362 18.7791 22.3326 19.0135C22.3153 19.0524 22.2961 19.0951 22.2759 19.1424C22.0786 19.61 21.8387 20.0585 21.5592 20.4821C21.0609 21.2274 20.5561 21.8044 19.7133 22.1968C19.2805 22.4015 18.8068 22.5052 18.3281 22.5001Z" fill="#FD5C63"/>
</svg>
