<svg width="120" height="120" viewBox="0 0 120 120" fill="none" xmlns="http://www.w3.org/2000/svg">
<g clip-path="url(#clip0)">
<path d="M77.4001 79.6839C75.3447 79.6839 73.2783 79.191 71.3668 78.193L61.4473 73.0139C60.3941 72.4641 59.1374 72.4641 58.0844 73.0139L48.1647 78.1928C43.748 80.4988 38.5045 80.1078 34.4813 77.1724C30.4895 74.2598 28.5304 69.4337 29.3693 64.5771L31.2639 53.6077C31.4603 52.4706 31.0785 51.3086 30.243 50.4997L22.2177 42.7311C18.6591 39.2866 17.3939 34.2254 18.9155 29.5223C20.4442 24.7967 24.4597 21.4188 29.3946 20.7067L40.4849 19.1062C41.6568 18.937 42.6674 18.2112 43.1874 17.164L48.1474 7.18389C50.349 2.75384 54.8009 0.00164795 59.7655 0.00164795C64.7302 0.00164795 69.1822 2.75384 71.3837 7.18389L76.3436 17.1638C76.8639 18.211 77.8743 18.937 79.0461 19.1062L90.1365 20.7067C95.0713 21.419 99.0865 24.797 100.616 29.5223C102.137 34.2252 100.872 39.2866 97.3133 42.7311L89.2883 50.4995C88.4525 51.3086 88.0707 52.4706 88.2671 53.6079L90.1618 64.5767C91.0006 69.4335 89.0417 74.2596 85.0497 77.1721C82.7681 78.8375 80.0935 79.6839 77.4001 79.6839ZM59.7658 63.2276C61.8336 63.2276 63.901 63.7196 65.7862 64.7037L75.7054 69.8825C77.5105 70.8245 78.9777 69.9983 79.5247 69.599C80.0565 69.2111 81.2574 68.1006 80.9244 66.1722L79.0297 55.2033C78.3053 51.0072 79.7031 46.7309 82.7688 43.7635L90.7936 35.9951C92.2118 34.6222 91.8975 33.0292 91.6967 32.4081C91.4921 31.7758 90.8002 30.2742 88.7982 29.9852L77.7079 28.3847C73.4878 27.7758 69.8399 25.1405 67.949 21.3358L62.989 11.3559C62.101 9.56906 60.4393 9.37618 59.766 9.37618C59.0926 9.37618 57.431 9.56906 56.5429 11.3559L51.583 21.336C49.6923 25.1405 46.0441 27.7758 41.8241 28.3847L30.7338 29.9852C28.7318 30.2742 28.0399 31.7758 27.8353 32.4081C27.6345 33.0292 27.3202 34.6222 28.7383 35.9951L36.7634 43.7635C39.8289 46.7306 41.2267 51.0072 40.5023 55.2028L38.6076 66.1722C38.2746 68.1004 39.4755 69.2108 40.0073 69.5987C40.5543 69.9978 42.0219 70.8247 43.8265 69.8821L53.746 64.7032C55.6301 63.7198 57.6981 63.2276 59.7658 63.2276ZM52.3452 9.27024H52.3475H52.3452ZM41.0931 119.998C39.4731 119.998 37.8447 119.61 36.338 118.823L29.7037 115.36C29.4492 115.227 29.1461 115.227 28.8916 115.36L22.2573 118.823C18.7762 120.641 14.6434 120.332 11.4724 118.019C8.32221 115.72 6.77678 111.911 7.43887 108.076L8.70587 100.741C8.7497 100.486 8.66251 100.225 8.47314 100.041L3.10609 94.8461C0.297412 92.1274 -0.701234 88.1319 0.500142 84.4188C1.7062 80.6905 4.87277 78.0257 8.764 77.4644L16.1811 76.394C16.3672 76.3671 16.5413 76.2801 16.6709 76.1491C18.491 74.3081 21.4584 74.2908 23.2998 76.1107C25.1408 77.9305 25.1581 80.8984 23.338 82.7396C21.7813 84.314 19.7154 85.3558 17.5203 85.6727L10.1029 86.743C9.97287 86.7618 9.57702 86.819 9.41976 87.3046C9.27047 87.7658 9.53858 88.025 9.62647 88.1104L14.9935 93.3056C17.4129 95.6477 18.5159 99.0233 17.944 102.336L16.677 109.672C16.6566 109.79 16.5943 110.151 16.9981 110.445C17.2887 110.658 17.5985 110.68 17.9189 110.513L24.5532 107.049C27.5241 105.498 31.0715 105.498 34.0423 107.049L40.6766 110.513C40.9968 110.68 41.3066 110.658 41.5975 110.446C42.0013 110.151 41.9389 109.791 41.9185 109.672L40.6515 102.336C40.0797 99.0235 41.1826 95.6479 43.602 93.3058L48.9691 88.1106C50.8288 86.3102 53.7968 86.358 55.597 88.2184C57.3977 90.0784 57.3494 93.0459 55.4892 94.8464L50.1222 100.042C49.9326 100.225 49.8456 100.487 49.8894 100.741L51.1564 108.077C51.8185 111.911 50.2731 115.72 47.1229 118.019C45.3242 119.331 43.2158 119.998 41.0931 119.998ZM108.527 118.018C111.678 115.72 113.223 111.91 112.561 108.076L111.294 100.741C111.25 100.486 111.337 100.225 111.527 100.041L116.894 94.8459C119.702 92.1272 120.701 88.1317 119.5 84.4186C118.294 80.6902 115.127 78.0255 111.236 77.4641L103.819 76.3938C103.633 76.3668 103.458 76.2799 103.329 76.1489C101.509 74.3079 98.5409 74.2906 96.7 76.1104C94.859 77.9303 94.8417 80.8981 96.6618 82.7393C98.2184 84.3138 100.284 85.3556 102.48 85.6725L109.897 86.7428C110.027 86.7616 110.423 86.8187 110.58 87.3044C110.729 87.7656 110.461 88.0248 110.373 88.1101L105.006 93.3054C102.587 95.6474 101.484 99.0231 102.056 102.336L103.323 109.672C103.343 109.79 103.405 110.151 103.002 110.445C102.711 110.657 102.401 110.68 102.081 110.513L95.4466 107.049C92.4757 105.498 88.9281 105.498 85.9574 107.049L79.3231 110.513C79.0028 110.68 78.6932 110.657 78.4023 110.445C77.9985 110.15 78.0608 109.79 78.0812 109.672L79.3482 102.335C79.9201 99.0228 78.8171 95.6472 76.3977 93.3051L71.0307 88.1099C69.1705 86.3092 66.2029 86.3575 64.4027 88.2177C62.6021 90.0777 62.6504 93.0452 64.5106 94.8457L69.8776 100.041C70.0672 100.224 70.1542 100.486 70.1103 100.74L68.8433 108.076C68.1812 111.91 69.7267 115.72 72.8768 118.018C76.0478 120.332 80.1807 120.64 83.6618 118.823L90.2961 115.359C90.5506 115.227 90.8536 115.227 91.1082 115.359L97.7424 118.823C99.2492 119.609 100.878 119.998 102.498 119.998C104.62 119.998 106.729 119.331 108.527 118.018Z" fill="#FD5C63"/>
</g>
<defs>
<clipPath id="clip0">
<rect width="120" height="120" fill="white"/>
</clipPath>
</defs>
</svg>
