<svg width="32" height="32" viewBox="0 0 32 32" fill="none" xmlns="http://www.w3.org/2000/svg">
<g clip-path="url(#clip0)">
<path d="M18.6676 0H12.9343L9.33428 1.2L5.73428 0.133312H1.33429C0.667601 0.133312 0.134289 0.666625 0.000976562 1.33331V12C0.000976562 12.8 0.534288 13.3333 1.33429 13.3333H5.73428L8.93428 12.2666L10.6676 13.8666V32H13.3343V20H18.6676V32H21.3343V13.6L22.1343 12C27.3343 12.2667 29.4676 15.2 29.6009 15.3333C30.2676 16.2666 31.8676 15.8666 32.0009 14.6666C32.0009 5.46669 27.0676 0 18.6676 0ZM4.00091 10.6667H2.6676V2.66669H4.00091V10.6667ZM8.0009 9.73331L6.66759 10.1333V3.2L8.0009 3.6V9.73331ZM21.3342 9.33331C20.8009 9.33331 20.4009 9.6 20.1342 10.1333L18.8009 12.8C18.6676 12.9333 18.6676 13.2 18.6676 13.3333V17.3333H13.3343V13.3333C13.3343 12.9333 13.201 12.6666 12.9343 12.4L10.6676 10.1333V3.6L13.6009 2.66669H18.6676C24.4009 2.66669 28.1343 5.86669 29.0676 11.4667C26.8009 10 24.0009 9.33331 21.3342 9.33331Z" fill="#FD5C63"/>
</g>
<defs>
<clipPath id="clip0">
<rect width="32" height="32" fill="white"/>
</clipPath>
</defs>
</svg>
