<svg width="120" height="120" viewBox="0 0 120 120" fill="none" xmlns="http://www.w3.org/2000/svg">
<path d="M16.875 86.25C7.57008 86.25 0 93.8201 0 103.125C0 112.43 7.57008 120 16.875 120C26.1799 120 33.75 112.43 33.75 103.125C33.75 93.8201 26.1799 86.25 16.875 86.25ZM16.875 110.625C12.7395 110.625 9.375 107.261 9.375 103.125C9.375 98.9895 12.7395 95.625 16.875 95.625C21.0105 95.625 24.375 98.9895 24.375 103.125C24.375 107.261 21.0105 110.625 16.875 110.625Z" fill="#FD5C63"/>
<path d="M60.8203 32.8125C59.8406 32.8125 56.4945 32.493 52.8253 31.0348C50.4202 30.0787 47.6939 31.2534 46.7379 33.6593C45.7816 36.0652 46.9566 38.7905 49.3624 39.7467C51.5077 40.5994 53.6365 41.1891 55.5471 41.5765V42.1875C55.5471 44.7764 57.6457 46.875 60.2346 46.875C62.8235 46.875 64.9221 44.7764 64.9221 42.1875V41.4612C69.4329 39.806 72.6565 35.5034 72.6565 30.4688C72.6565 27.2726 71.2376 24.1819 68.7638 21.9891C66.4069 19.9003 63.2948 18.75 60 18.75C57.7287 18.75 56.0156 17.7424 56.0156 16.4062C56.0156 15.1139 57.067 14.0625 58.3594 14.0625C60.0244 14.0625 62.0496 14.2509 65.5666 15.6187C67.9795 16.5567 70.6962 15.3616 71.6344 12.949C72.5726 10.5361 71.3773 7.81945 68.9646 6.88125C67.4625 6.29719 66.1263 5.86758 64.9219 5.55V4.6875C64.9219 2.09859 62.8233 0 60.2344 0C57.6455 0 55.5469 2.09859 55.5469 4.6875V5.03109C50.4394 6.29437 46.6406 10.9141 46.6406 16.4062C46.6406 23.0871 52.384 28.125 60 28.125C61.7787 28.125 63.2813 29.1984 63.2813 30.4688C63.2813 31.7391 62.1541 32.8125 60.8203 32.8125Z" fill="#FD5C63"/>
<path d="M60.2344 53.9062C57.6455 53.9062 55.5469 56.0048 55.5469 58.5938V72.8906C55.5469 75.4795 57.6455 77.5781 60.2344 77.5781C62.8233 77.5781 64.9219 75.4795 64.9219 72.8906V58.5938C64.9219 56.0048 62.8233 53.9062 60.2344 53.9062Z" fill="#FD5C63"/>
<path d="M60.2344 86.25C50.9295 86.25 43.3594 93.8201 43.3594 103.125C43.3594 112.43 50.9295 120 60.2344 120C69.5393 120 77.1094 112.43 77.1094 103.125C77.1094 93.8201 69.5393 86.25 60.2344 86.25ZM60.2344 110.625C56.0988 110.625 52.7344 107.261 52.7344 103.125C52.7344 98.9895 56.0988 95.625 60.2344 95.625C64.3699 95.625 67.7344 98.9895 67.7344 103.125C67.7344 107.261 64.3699 110.625 60.2344 110.625Z" fill="#FD5C63"/>
<path d="M103.125 86.25C93.8201 86.25 86.25 93.8201 86.25 103.125C86.25 112.43 93.8201 120 103.125 120C112.43 120 120 112.43 120 103.125C120 93.8201 112.43 86.25 103.125 86.25ZM103.125 110.625C98.9895 110.625 95.625 107.261 95.625 103.125C95.625 98.9895 98.9895 95.625 103.125 95.625C107.261 95.625 110.625 98.9895 110.625 103.125C110.625 107.261 107.261 110.625 103.125 110.625Z" fill="#FD5C63"/>
<path d="M33.6614 24.588C27.5273 25.964 21.9584 29.4253 17.9813 34.3341C13.9427 39.3178 11.7188 45.6012 11.7188 52.0263V73.3594C11.7188 75.9483 13.8173 78.0469 16.4062 78.0469C18.9952 78.0469 21.0938 75.9483 21.0938 73.3594V52.0263C21.0938 43.3282 27.2423 35.6358 35.7136 33.7355C38.2397 33.1687 39.828 30.6616 39.2613 28.1355C38.6946 25.6097 36.187 24.0213 33.6614 24.588Z" fill="#FD5C63"/>
<path d="M98.6719 52.0263V73.3594C98.6719 75.9483 100.77 78.0469 103.359 78.0469C105.948 78.0469 108.047 75.9483 108.047 73.3594V52.0263C108.047 45.6009 105.823 39.3178 101.784 34.3338C97.807 29.4253 92.2383 25.9641 86.1042 24.5878C83.5772 24.0218 81.071 25.6097 80.5043 28.1355C79.9378 30.6616 81.5259 33.1687 84.052 33.7355C92.5233 35.636 98.6719 43.3284 98.6719 52.0263Z" fill="#FD5C63"/>
</svg>
