<svg width="120" height="120" viewBox="0 0 120 120" fill="none" xmlns="http://www.w3.org/2000/svg">
<path d="M60.2342 70.0748C57.6462 70.0748 55.5483 67.9769 55.5483 65.3889V36.805C55.5483 34.217 57.6462 32.1191 60.2342 32.1191C62.8222 32.1191 64.9201 34.217 64.9201 36.805V65.3889C64.9201 67.9767 62.8222 70.0748 60.2342 70.0748ZM60.2342 88.584C63.4691 88.584 66.0915 85.9615 66.0915 82.7266C66.0915 79.4917 63.4691 76.8693 60.2342 76.8693C56.9993 76.8693 54.3768 79.4917 54.3768 82.7266C54.3768 85.9615 56.9993 88.584 60.2342 88.584ZM68.8909 116.38L74.8576 110.604C75.6193 109.867 76.6584 109.529 77.7076 109.677L85.9273 110.841C92.7945 111.813 99.1136 107.22 100.312 100.386L101.746 92.2034C101.93 91.157 102.572 90.2714 103.509 89.7737L110.843 85.8802C116.968 82.628 119.381 75.1983 116.337 68.9659L112.691 61.5024C112.224 60.5477 112.224 59.4523 112.691 58.4974L116.336 51.0342C119.381 44.8015 116.968 37.3718 110.843 34.1195L103.509 30.2263C102.572 29.7286 101.929 28.843 101.746 27.7966L100.312 19.6144C99.1136 12.7796 92.7954 8.18764 85.9273 9.15903L77.7076 10.3225C76.6577 10.4715 75.6193 10.1332 74.8574 9.39566L68.8909 3.61961C63.9056 -1.20637 56.0949 -1.20637 51.1094 3.61961L45.1426 9.39566C44.3809 10.1332 43.342 10.4713 42.2926 10.3225L34.0727 9.15903C27.2055 8.18717 20.8866 12.7796 19.6884 19.6144L18.2541 27.7966C18.0706 28.843 17.4279 29.7286 16.4908 30.2263L9.15714 34.1198C3.03199 37.3718 0.618996 44.8017 3.66365 51.0342L7.30949 58.4976C7.77597 59.4523 7.77597 60.5477 7.30949 61.5027L3.66365 68.9659C0.618996 75.1985 3.03199 82.6282 9.15714 85.8805L16.4905 89.7737C17.4277 90.2714 18.0706 91.157 18.2541 92.2034L19.6884 100.386C20.7791 106.607 26.1118 110.971 32.24 110.971C32.844 110.971 33.4565 110.928 34.0727 110.841L42.2924 109.677C43.343 109.529 44.3809 109.867 45.1426 110.604L51.1094 116.38C53.602 118.793 56.8011 120 60.0001 120C63.1992 120 66.398 118.793 68.8909 116.38ZM40.9792 100.398L32.7592 101.562C30.9256 101.823 29.2394 100.594 28.9194 98.7676L27.485 90.5853C26.799 86.6717 24.3935 83.359 20.8852 81.4964L13.5518 77.6031C11.9143 76.7339 11.2698 74.7468 12.0842 73.0796L15.73 65.6164C17.4736 62.0471 17.4736 57.9531 15.73 54.3839L12.0842 46.9207C11.2698 45.2534 11.9143 43.2666 13.5518 42.3974L20.8854 38.5039C24.3937 36.6412 26.799 33.3286 27.485 29.4149L28.9194 21.2327C29.2394 19.4066 30.9256 18.1796 32.7592 18.4385L40.9792 19.602C44.9125 20.1589 48.806 18.8928 51.6609 16.1293L57.6274 10.3535C58.958 9.06554 61.042 9.06554 62.3726 10.3535L68.3391 16.1295C71.194 18.893 75.0872 20.158 79.021 19.6022L87.2408 18.4387C89.0734 18.1789 90.7606 19.4066 91.0808 21.2329L92.5152 29.4151C93.2012 33.3288 95.6067 36.6415 99.115 38.5041L106.448 42.3974C108.086 43.2666 108.73 45.2537 107.916 46.9209L104.27 54.3841C102.527 57.9533 102.527 62.0474 104.27 65.6164L107.916 73.0798C108.73 74.7468 108.086 76.7339 106.449 77.6031L99.1153 81.4966C95.6069 83.3592 93.2014 86.6719 92.5154 90.5856L91.0811 98.7678C90.761 100.594 89.0732 101.82 87.241 101.562L79.021 100.399C75.0872 99.8414 71.194 101.108 68.3393 103.871L62.3728 109.647C61.0423 110.935 58.9582 110.935 57.6279 109.647L51.6614 103.871C49.2486 101.535 46.0943 100.269 42.8003 100.269C42.1966 100.269 41.5881 100.312 40.9792 100.398Z" fill="#FD5C63"/>
<circle cx="59.5" cy="59.5" r="37.5" fill="white"/>
<path d="M34.7031 69.2344C31.5781 69.2344 29.2708 68.4219 27.7812 66.7969C26.3021 65.1719 25.5625 62.6458 25.5625 59.2188C25.5625 52.625 28.6562 49.3281 34.8438 49.3281C35.6875 49.3281 36.5729 49.4115 37.5 49.5781C38.4375 49.7448 39.2188 49.9792 39.8438 50.2812C40.4688 50.5729 40.7812 50.901 40.7812 51.2656C40.7812 51.526 40.6771 51.8698 40.4688 52.2969C40.2604 52.7135 40.0156 53.0833 39.7344 53.4062C39.4531 53.7292 39.2031 53.8906 38.9844 53.8906C38.9219 53.8906 38.7708 53.8385 38.5312 53.7344C38.0104 53.526 37.4635 53.3542 36.8906 53.2188C36.3177 53.0729 35.6094 53 34.7656 53C33.1302 53 31.9167 53.5208 31.125 54.5625C30.3438 55.5938 29.9531 57.1562 29.9531 59.25C29.9531 61.3438 30.349 62.9219 31.1406 63.9844C31.9323 65.0469 33.1198 65.5781 34.7031 65.5781C35.5052 65.5781 36.2292 65.5104 36.875 65.375V61.8594H34.4219C34.1302 61.8594 33.9167 61.75 33.7812 61.5312C33.6562 61.3125 33.5938 60.9583 33.5938 60.4688V59.5781C33.5938 59.099 33.6562 58.75 33.7812 58.5312C33.9167 58.3125 34.1302 58.2031 34.4219 58.2031H40.0625C40.4583 58.2031 40.7448 58.2917 40.9219 58.4688C41.099 58.6354 41.1875 58.9115 41.1875 59.2969V67.0312C41.1875 67.8646 40.4896 68.4427 39.0938 68.7656C37.6979 69.0781 36.2344 69.2344 34.7031 69.2344ZM46.3906 69.0469C45.2865 69.0469 44.7344 68.7552 44.7344 68.1719V59.3594C44.7344 58.026 44.6458 56.9167 44.4688 56.0312C44.4167 55.75 44.3906 55.5521 44.3906 55.4375C44.3906 55.2292 44.5833 55.0625 44.9688 54.9375C45.3646 54.8021 45.8073 54.7031 46.2969 54.6406C46.7969 54.5781 47.1979 54.5469 47.5 54.5469C47.8229 54.5469 48.0469 54.6667 48.1719 54.9062C48.3073 55.1458 48.4271 55.4948 48.5312 55.9531L48.625 56.3594C48.9792 55.7135 49.3854 55.2031 49.8438 54.8281C50.3125 54.4427 50.9115 54.25 51.6406 54.25C52.2448 54.25 52.6615 54.4062 52.8906 54.7188C53.1198 55.0208 53.2344 55.3646 53.2344 55.75C53.2344 55.9583 53.1979 56.2552 53.125 56.6406C53.0521 57.0156 52.9479 57.349 52.8125 57.6406C52.6771 57.9323 52.526 58.0781 52.3594 58.0781C52.2448 58.0781 52.0729 58.0469 51.8438 57.9844C51.5312 57.901 51.2656 57.8594 51.0469 57.8594C50.5365 57.8594 50.0885 58.0052 49.7031 58.2969C49.3281 58.5781 49.0417 58.8958 48.8438 59.25V68.1719C48.8438 68.7552 48.2812 69.0469 47.1562 69.0469H46.3906ZM58.4375 69.2344C57.0208 69.2344 55.9792 68.8646 55.3125 68.125C54.6562 67.375 54.3281 66.3854 54.3281 65.1562C54.3281 64.2292 54.5208 63.3958 54.9062 62.6562C55.2917 61.9062 56.0729 61.276 57.25 60.7656C58.4271 60.2552 60.1094 60 62.2969 60V59.0781C62.2969 58.5365 62.125 58.1354 61.7812 57.875C61.4375 57.6146 60.8906 57.4844 60.1406 57.4844C59.5156 57.4844 58.9792 57.5521 58.5312 57.6875C58.0833 57.8125 57.599 57.9844 57.0781 58.2031C56.8073 58.3281 56.6406 58.3906 56.5781 58.3906C56.3906 58.3906 56.1823 58.25 55.9531 57.9688C55.7344 57.6875 55.5417 57.3646 55.375 57C55.2083 56.6354 55.125 56.3594 55.125 56.1719C55.125 55.849 55.3542 55.5417 55.8125 55.25C56.2812 54.9479 56.9219 54.7083 57.7344 54.5312C58.5469 54.3438 59.4479 54.25 60.4375 54.25C62.5208 54.25 64.0365 54.6667 64.9844 55.5C65.9323 56.3229 66.4062 57.4531 66.4062 58.8906V64.0938C66.4062 64.9583 66.4271 65.6302 66.4688 66.1094C66.5208 66.5885 66.5885 67.0625 66.6719 67.5312C66.724 67.8125 66.75 68.0104 66.75 68.125C66.75 68.3333 66.5521 68.5052 66.1562 68.6406C65.7708 68.776 65.3281 68.875 64.8281 68.9375C64.3281 69 63.9271 69.0312 63.625 69.0312C63.3021 69.0312 63.0677 68.8958 62.9219 68.625C62.7865 68.3438 62.6771 67.9635 62.5938 67.4844C62.5833 67.4219 62.5729 67.3594 62.5625 67.2969C62.5521 67.2344 62.5365 67.1719 62.5156 67.1094C62.4115 67.3073 62.1875 67.5729 61.8438 67.9062C61.5104 68.2396 61.0521 68.5469 60.4688 68.8281C59.8854 69.099 59.2083 69.2344 58.4375 69.2344ZM59.7969 65.9688C60.3177 65.9688 60.8073 65.8073 61.2656 65.4844C61.724 65.151 62.0677 64.7292 62.2969 64.2188V62.6875C59.7031 62.6875 58.4062 63.3698 58.4062 64.7344C58.4062 65.099 58.526 65.3958 58.7656 65.625C59.0156 65.8542 59.3594 65.9688 59.7969 65.9688ZM74.5156 69.2344C73.1927 69.2344 72.1823 68.8646 71.4844 68.125C70.7969 67.375 70.4531 66.2396 70.4531 64.7188V57.7188H70.0156C69.724 57.7188 69.5104 57.6094 69.375 57.3906C69.25 57.1719 69.1875 56.8177 69.1875 56.3281V55.8594C69.1875 55.3698 69.25 55.0156 69.375 54.7969C69.5104 54.5781 69.724 54.4688 70.0156 54.4688H70.4531L70.8125 51.8281C70.8958 51.2448 71.3958 50.9531 72.3125 50.9531H73.1875C73.6667 50.9531 74.0156 51.026 74.2344 51.1719C74.4635 51.3177 74.5781 51.5365 74.5781 51.8281V54.4688H75.9375C76.2292 54.4688 76.4375 54.5781 76.5625 54.7969C76.6979 55.0156 76.7656 55.3698 76.7656 55.8594V56.3281C76.7656 56.8177 76.6979 57.1719 76.5625 57.3906C76.4375 57.6094 76.2292 57.7188 75.9375 57.7188H74.5781V64.7656C74.5781 65.1927 74.651 65.5 74.7969 65.6875C74.9531 65.875 75.2083 65.9688 75.5625 65.9688C75.6667 65.9688 75.8073 65.9531 75.9844 65.9219C76.1615 65.8802 76.2708 65.8594 76.3125 65.8594C76.4792 65.8594 76.625 66 76.75 66.2812C76.8854 66.5521 76.9896 66.8542 77.0625 67.1875C77.1458 67.5208 77.1875 67.7448 77.1875 67.8594C77.1875 68.776 76.2969 69.2344 74.5156 69.2344ZM81.1562 52.0781C80.5729 52.0781 80.1458 52.0052 79.875 51.8594C79.6146 51.7135 79.4844 51.4896 79.4844 51.1875V48.9531C79.4844 48.651 79.6198 48.4271 79.8906 48.2812C80.1615 48.125 80.5833 48.0469 81.1562 48.0469H81.9219C82.4948 48.0469 82.9167 48.125 83.1875 48.2812C83.4583 48.4271 83.5938 48.651 83.5938 48.9531V51.1875C83.5938 51.4896 83.4583 51.7135 83.1875 51.8594C82.9271 52.0052 82.5052 52.0781 81.9219 52.0781H81.1562ZM81.1562 69.0469C80.0417 69.0469 79.4844 68.7552 79.4844 68.1719V55.2969C79.4844 55.0052 79.6198 54.7865 79.8906 54.6406C80.1615 54.4948 80.5833 54.4219 81.1562 54.4219H81.9219C82.4948 54.4219 82.9167 54.4948 83.1875 54.6406C83.4583 54.7865 83.5938 55.0052 83.5938 55.2969V68.1719C83.5938 68.7552 83.0365 69.0469 81.9219 69.0469H81.1562ZM90.6875 69.2344C89.9688 69.2344 89.2552 69.1562 88.5469 69C87.8385 68.8438 87.25 68.6198 86.7812 68.3281C86.3229 68.0365 86.0938 67.7031 86.0938 67.3281C86.0938 67.099 86.1771 66.8125 86.3438 66.4688C86.5104 66.125 86.7083 65.8281 86.9375 65.5781C87.1771 65.3177 87.3854 65.1875 87.5625 65.1875C87.6562 65.1875 87.8594 65.2604 88.1719 65.4062C88.5365 65.5729 88.8854 65.7083 89.2188 65.8125C89.5521 65.9167 89.9323 65.9688 90.3594 65.9688C90.8906 65.9688 91.2917 65.8698 91.5625 65.6719C91.8333 65.474 91.9688 65.1823 91.9688 64.7969C91.9688 64.5052 91.8854 64.2656 91.7188 64.0781C91.5625 63.8802 91.3594 63.7188 91.1094 63.5938C90.8594 63.4688 90.5052 63.3177 90.0469 63.1406L89.5938 62.9688C89 62.7396 88.4792 62.4792 88.0312 62.1875C87.5833 61.8958 87.2031 61.474 86.8906 60.9219C86.5781 60.3594 86.4219 59.651 86.4219 58.7969C86.4219 57.849 86.625 57.0365 87.0312 56.3594C87.4479 55.6719 88.0365 55.151 88.7969 54.7969C89.5573 54.4323 90.4531 54.25 91.4844 54.25C92.0781 54.25 92.6979 54.3073 93.3438 54.4219C93.9896 54.5365 94.5312 54.7135 94.9688 54.9531C95.4167 55.1927 95.6406 55.4948 95.6406 55.8594C95.6406 56.0677 95.5729 56.349 95.4375 56.7031C95.3125 57.0573 95.1562 57.3698 94.9688 57.6406C94.7812 57.9115 94.6042 58.0469 94.4375 58.0469C94.3854 58.0469 94.2396 58 94 57.9062C93.6771 57.7708 93.3646 57.6667 93.0625 57.5938C92.7708 57.5104 92.4323 57.4688 92.0469 57.4688C91.0677 57.4688 90.5781 57.7917 90.5781 58.4375C90.5781 58.7292 90.6667 58.9792 90.8438 59.1875C91.0312 59.3958 91.2604 59.5677 91.5312 59.7031C91.8021 59.8385 92.1823 60 92.6719 60.1875C93.2344 60.4167 93.5833 60.5625 93.7188 60.625C94.4479 60.9896 95.0312 61.474 95.4688 62.0781C95.9167 62.6719 96.1406 63.4688 96.1406 64.4688C96.1406 65.4167 95.9271 66.25 95.5 66.9688C95.0729 67.6875 94.4479 68.2448 93.625 68.6406C92.8021 69.0365 91.8229 69.2344 90.6875 69.2344Z" fill="#FD5C63"/>
</svg>
