<svg width="32" height="32" viewBox="0 0 32 32" fill="none" xmlns="http://www.w3.org/2000/svg">
<path d="M10.6667 12C9.93031 12 9.33337 12.5969 9.33337 13.3333V18.6666C9.33337 19.403 9.93031 19.9999 10.6667 19.9999H21.3334C22.0697 19.9999 22.6667 19.403 22.6667 18.6666V13.3333C22.6667 12.5969 22.0697 12 21.3334 12H10.6667ZM20 17.3333H12V14.6666H20V17.3333Z" fill="#FD5C63"/>
<path d="M18.6667 9.33331H29.3334C30.0697 9.33331 30.6667 8.73637 30.6667 8V2.66669C30.6667 1.93031 30.0697 1.33337 29.3334 1.33337H18.6667C17.9303 1.33337 17.3334 1.93031 17.3334 2.66669V8C17.3333 8.73637 17.9303 9.33331 18.6667 9.33331ZM20 4H28V6.66669H20V4Z" fill="#FD5C63"/>
<path d="M2.66669 9.33331H13.3334C14.0697 9.33331 14.6667 8.73637 14.6667 8V2.66669C14.6667 1.93031 14.0697 1.33337 13.3334 1.33337H2.66669C1.93031 1.33337 1.33337 1.93031 1.33337 2.66669V8C1.33331 8.73637 1.93031 9.33331 2.66669 9.33331ZM4 4H12V6.66669H4V4Z" fill="#FD5C63"/>
<path d="M29.3333 22.6667H18.6667C17.9303 22.6667 17.3334 23.2636 17.3334 24V29.3333C17.3334 30.0697 17.9303 30.6666 18.6667 30.6666H29.3334C30.0697 30.6666 30.6667 30.0697 30.6667 29.3333V24C30.6667 23.2636 30.0697 22.6667 29.3333 22.6667ZM28 28H20V25.3333H28V28Z" fill="#FD5C63"/>
<path d="M13.3333 22.6667H2.66669C1.93031 22.6667 1.33337 23.2636 1.33337 24V29.3333C1.33337 30.0697 1.93031 30.6666 2.66669 30.6666H13.3334C14.0697 30.6666 14.6667 30.0697 14.6667 29.3333V24C14.6667 23.2636 14.0697 22.6667 13.3333 22.6667ZM12 28H4V25.3333H12V28Z" fill="#FD5C63"/>
<path d="M32 14.6667V12H26.6667C25.9303 12 25.3334 12.5969 25.3334 13.3333V18.6666C25.3334 19.403 25.9303 19.9999 26.6667 19.9999H32V17.3333H28V14.6666H32V14.6667Z" fill="#FD5C63"/>
<path d="M6.66669 18.6667V13.3334C6.66669 12.597 6.06975 12.0001 5.33337 12.0001H0V14.6667H4V17.3334H0V20H5.33331C6.06969 20 6.66669 19.4031 6.66669 18.6667Z" fill="#FD5C63"/>
</svg>
