<svg width="32" height="32" viewBox="0 0 32 32" fill="none" xmlns="http://www.w3.org/2000/svg">
<path d="M29.3333 4H25.3333V1.33331C25.3333 0.596938 24.7364 0 24 0H2.66669C1.93031 0 1.33331 0.596938 1.33331 1.33331V9.33331C1.33331 10.0697 1.93025 10.6666 2.66663 10.6666H24C24.7364 10.6666 25.3333 10.0697 25.3333 9.33331V6.66663H28V13.3333H17.3333C15.1242 13.3333 13.3333 15.1242 13.3333 17.3333V20H12C11.2636 20 10.6667 20.5969 10.6667 21.3333V29.3333C10.6667 30.8061 11.8606 32 13.3334 32H16C17.4727 32 18.6667 30.8061 18.6667 29.3333V21.3333C18.6667 20.5969 18.0698 20 17.3334 20H16V17.3333C16 16.5969 16.5969 16 17.3333 16H29.3333C30.0697 16 30.6666 15.4031 30.6666 14.6667V5.33331C30.6667 4.59694 30.0697 4 29.3333 4ZM22.6667 8H4V2.66669H6.66669V4H9.33338V2.66669H10.6667V5.33337H13.3334V2.66669H14.6667V4H17.3334V2.66669H22.6667V8ZM16 29.3333H13.3333V22.6667H16V29.3333Z" fill="#FD5C63"/>
</svg>
