<svg width="32" height="32" viewBox="0 0 32 32" fill="none" xmlns="http://www.w3.org/2000/svg">
<path d="M29.3333 2.66669V4H26.6666C21.5119 4 17.3333 8.17869 17.3333 13.3333V16H16V18.6667H17.3333V21.3334C17.3333 22.0698 16.7364 22.6667 16 22.6667H14.6667V21.3334H12V22.6667H10.6667C9.93031 22.6667 9.33337 22.0698 9.33337 21.3334V18.6667H10.6667V16H9.33337V2.66669H10.6667V0H0V2.66669H1.33331V16H0V18.6667H1.33331V21.3334C1.33331 26.4881 5.512 30.6667 10.6666 30.6667H12V32H14.6667V30.6667H16C21.1547 30.6667 25.3333 26.488 25.3333 21.3334V18.6667H26.6666V16H25.3333V13.3333C25.3333 12.5969 25.9302 12 26.6666 12H29.3333V13.3333H32V2.66669H29.3333ZM4 2.66669H6.66669V16H4V2.66669ZM12 28H10.6667C6.98475 28 4 25.0153 4 21.3333V18.6666H6.66669V21.3333C6.66669 23.5424 8.45756 25.3333 10.6667 25.3333H12V28ZM22.6667 21.3333C22.6667 25.0153 19.6819 28 16 28H14.6667V25.3333H16C18.2091 25.3333 20 23.5424 20 21.3333V18.6666H22.6667V21.3333ZM29.3333 9.33331H26.6666C24.4575 9.33331 22.6666 11.1242 22.6666 13.3333V16H20V13.3333C20 9.65144 22.9847 6.66663 26.6667 6.66663H29.3334V9.33331H29.3333Z" fill="#FD5C63"/>
</svg>
