<svg width="120" height="120" viewBox="0 0 120 120" fill="none" xmlns="http://www.w3.org/2000/svg">
<g clip-path="url(#clip0)">
<path d="M99.6747 6.63723C93.3878 1.31123 85.137 -0.969798 77.0384 0.380319C65.686 2.27189 54.2433 2.30702 43.0281 0.48313C34.8452 -0.846613 26.5379 1.4651 20.234 6.82716C13.9534 12.1691 10.3513 19.963 10.3513 28.2098V51.9333C10.3513 61.5155 12.2105 70.863 15.8778 79.7159C19.5447 88.5689 24.8396 96.4935 31.6152 103.269L40.1283 111.782C45.607 117.261 52.8035 120 60.0002 120C67.197 120 74.3934 117.261 79.8721 111.782L88.385 103.269C95.1609 96.4932 100.456 88.5689 104.123 79.7159C107.79 70.8632 109.649 61.5157 109.649 51.9335V28.1532C109.649 19.8492 106.013 12.0068 99.6747 6.63723ZM100.281 51.9335C100.281 68.8232 93.7037 84.7021 81.7609 96.6452L73.248 105.158C65.9431 112.463 54.0571 112.463 46.7522 105.158L38.2391 96.6452C26.2963 84.7021 19.719 68.823 19.719 51.9333V28.2098C19.719 22.7147 22.119 17.5218 26.3033 13.9628C29.7304 11.0478 34.0464 9.4836 38.4831 9.4836C39.4934 9.4836 40.5108 9.56486 41.5246 9.72974C53.7496 11.7171 66.2162 11.6806 78.578 9.62037C83.9553 8.72505 89.4379 10.2419 93.6194 13.7848C97.8529 17.371 100.281 22.6082 100.281 28.1532V51.9335H100.281ZM74.9883 65.2902C74.9883 68.8541 73.5443 72.2082 70.9225 74.7349C69.2731 76.3244 67.2939 77.4508 65.1522 78.0532V80.6689C65.1522 83.2557 63.0553 85.3527 60.4684 85.3527C57.8815 85.3527 55.7845 83.2557 55.7845 80.6689V77.9105C53.2733 77.423 50.4438 76.6539 47.7314 75.5759C45.3274 74.6204 44.1534 71.897 45.1089 69.493C46.0644 67.089 48.7874 65.9155 51.1916 66.8705C55.4489 68.563 59.7639 69.1934 61.4834 69.1934C63.6874 69.1934 65.6208 67.3696 65.6208 65.2902C65.6208 63.1745 63.2674 61.3871 60.4817 61.3871C51.796 61.3871 45.2461 55.682 45.2461 48.1162C45.2461 41.7239 49.7759 36.3733 55.7848 35.1222V31.9569C55.7848 29.37 57.8817 27.2731 60.4686 27.2731C63.0555 27.2731 65.1525 29.37 65.1525 31.9569V35.566C66.934 35.9564 68.9616 36.5496 71.2867 37.4539C73.6974 38.3913 74.892 41.1059 73.9543 43.5169C73.0169 45.9276 70.3019 47.1222 67.8913 46.1845C63.4241 44.4473 60.626 44.2131 58.478 44.2131C56.3473 44.2131 54.6138 45.9642 54.6138 48.1164C54.6138 50.378 57.0817 52.0197 60.4817 52.0197C68.4806 52.0194 74.9883 57.9726 74.9883 65.2902Z" fill="#FD5C63"/>
</g>
<defs>
<clipPath id="clip0">
<rect width="120" height="120" fill="white"/>
</clipPath>
</defs>
</svg>
